<mxfile host="app.diagrams.net" agent="Mozilla/5.0 (Windows NT 10.0; Win64; x64) AppleWebKit/537.36 (KHTML, like Gecko) Chrome/138.0.0.0 Safari/537.36" version="27.2.0">
  <diagram name="PÃ¡gina-1" id="UNlTn0EYmk_jITGoq_r0">
    <mxGraphModel dx="2893" dy="777" grid="1" gridSize="10" guides="1" tooltips="1" connect="1" arrows="1" fold="1" page="1" pageScale="1" pageWidth="827" pageHeight="1169" math="0" shadow="0">
      <root>
        <mxCell id="0" />
        <mxCell id="1" parent="0" />
        <mxCell id="rBnCbFCfP_WUOxlLveMo-28" value="" style="rounded=0;whiteSpace=wrap;html=1;fillColor=none;" vertex="1" parent="1">
          <mxGeometry x="-20" y="20" width="850" height="560" as="geometry" />
        </mxCell>
        <mxCell id="rBnCbFCfP_WUOxlLveMo-1" value="" style="html=1;verticalLabelPosition=bottom;align=center;labelBackgroundColor=#ffffff;verticalAlign=top;strokeWidth=2;strokeColor=#0080F0;shadow=0;dashed=0;shape=mxgraph.ios7.icons.smartphone;" vertex="1" parent="1">
          <mxGeometry x="110" y="280" width="38" height="63.33" as="geometry" />
        </mxCell>
        <mxCell id="rBnCbFCfP_WUOxlLveMo-2" value="extrato-mobile" style="text;html=1;align=center;verticalAlign=middle;whiteSpace=wrap;rounded=0;" vertex="1" parent="1">
          <mxGeometry x="83.5" y="350" width="91" height="30" as="geometry" />
        </mxCell>
        <mxCell id="rBnCbFCfP_WUOxlLveMo-3" value="" style="rounded=0;whiteSpace=wrap;html=1;fillColor=none;dashed=1;" vertex="1" parent="1">
          <mxGeometry x="40" y="200" width="170" height="180" as="geometry" />
        </mxCell>
        <mxCell id="rBnCbFCfP_WUOxlLveMo-4" value="&lt;b&gt;&lt;font style=&quot;font-size: 14px;&quot;&gt;Internet&lt;/font&gt;&lt;/b&gt;" style="text;html=1;align=center;verticalAlign=middle;whiteSpace=wrap;rounded=0;" vertex="1" parent="1">
          <mxGeometry x="99" y="220" width="60" height="30" as="geometry" />
        </mxCell>
        <mxCell id="rBnCbFCfP_WUOxlLveMo-8" value="" style="rounded=0;whiteSpace=wrap;html=1;fillColor=none;dashed=1;" vertex="1" parent="1">
          <mxGeometry x="320" y="192.5" width="470" height="347.5" as="geometry" />
        </mxCell>
        <mxCell id="rBnCbFCfP_WUOxlLveMo-9" value="" style="image;aspect=fixed;perimeter=ellipsePerimeter;html=1;align=center;shadow=0;dashed=0;spacingTop=3;image=img/lib/active_directory/web_server.svg;" vertex="1" parent="1">
          <mxGeometry x="389" y="257.5" width="50" height="62.5" as="geometry" />
        </mxCell>
        <mxCell id="rBnCbFCfP_WUOxlLveMo-10" value="extrato-api" style="text;html=1;align=center;verticalAlign=middle;whiteSpace=wrap;rounded=0;" vertex="1" parent="1">
          <mxGeometry x="384" y="320" width="60" height="30" as="geometry" />
        </mxCell>
        <mxCell id="rBnCbFCfP_WUOxlLveMo-11" value="Intranet" style="text;html=1;align=center;verticalAlign=middle;whiteSpace=wrap;rounded=0;fontStyle=1;fontSize=14;" vertex="1" parent="1">
          <mxGeometry x="525" y="210" width="60" height="30" as="geometry" />
        </mxCell>
        <mxCell id="rBnCbFCfP_WUOxlLveMo-12" value="" style="image;aspect=fixed;perimeter=ellipsePerimeter;html=1;align=center;shadow=0;dashed=0;spacingTop=3;image=img/lib/active_directory/web_server.svg;" vertex="1" parent="1">
          <mxGeometry x="675" y="250.82999999999998" width="50" height="62.5" as="geometry" />
        </mxCell>
        <mxCell id="rBnCbFCfP_WUOxlLveMo-13" value="extrato-processor" style="text;html=1;align=center;verticalAlign=middle;whiteSpace=wrap;rounded=0;" vertex="1" parent="1">
          <mxGeometry x="650" y="313.33" width="100" height="30" as="geometry" />
        </mxCell>
        <mxCell id="rBnCbFCfP_WUOxlLveMo-14" value="" style="points=[];aspect=fixed;html=1;align=center;shadow=0;dashed=0;fillColor=#FF6A00;strokeColor=none;shape=mxgraph.alibaba_cloud.kafka;" vertex="1" parent="1">
          <mxGeometry x="530" y="271" width="56.699999999999996" height="42" as="geometry" />
        </mxCell>
        <mxCell id="rBnCbFCfP_WUOxlLveMo-19" value="" style="endArrow=classic;startArrow=classic;html=1;rounded=0;entryX=0;entryY=0.5;entryDx=0;entryDy=0;exitX=0.847;exitY=0.286;exitDx=0;exitDy=0;exitPerimeter=0;" edge="1" parent="1" source="rBnCbFCfP_WUOxlLveMo-14" target="rBnCbFCfP_WUOxlLveMo-12">
          <mxGeometry width="50" height="50" relative="1" as="geometry">
            <mxPoint x="610" y="281.58" as="sourcePoint" />
            <mxPoint x="663.6894" y="281.58" as="targetPoint" />
          </mxGeometry>
        </mxCell>
        <mxCell id="rBnCbFCfP_WUOxlLveMo-21" value="topic-add-movimentacao&lt;div&gt;topic-process-saldo&lt;/div&gt;" style="text;html=1;align=center;verticalAlign=middle;whiteSpace=wrap;rounded=0;" vertex="1" parent="1">
          <mxGeometry x="485" y="313" width="140" height="30" as="geometry" />
        </mxCell>
        <mxCell id="rBnCbFCfP_WUOxlLveMo-22" value="" style="image;aspect=fixed;html=1;points=[];align=center;fontSize=12;image=img/lib/azure2/databases/Azure_Database_PostgreSQL_Server.svg;" vertex="1" parent="1">
          <mxGeometry x="539" y="400" width="48" height="64" as="geometry" />
        </mxCell>
        <mxCell id="rBnCbFCfP_WUOxlLveMo-23" value="" style="endArrow=classic;startArrow=classic;html=1;rounded=0;" edge="1" parent="1" source="rBnCbFCfP_WUOxlLveMo-10" target="rBnCbFCfP_WUOxlLveMo-22">
          <mxGeometry width="50" height="50" relative="1" as="geometry">
            <mxPoint x="440" y="450" as="sourcePoint" />
            <mxPoint x="490" y="400" as="targetPoint" />
          </mxGeometry>
        </mxCell>
        <mxCell id="rBnCbFCfP_WUOxlLveMo-24" value="" style="endArrow=classic;startArrow=classic;html=1;rounded=0;entryX=0.5;entryY=1;entryDx=0;entryDy=0;exitX=0.917;exitY=0.391;exitDx=0;exitDy=0;exitPerimeter=0;" edge="1" parent="1" source="rBnCbFCfP_WUOxlLveMo-22" target="rBnCbFCfP_WUOxlLveMo-13">
          <mxGeometry width="50" height="50" relative="1" as="geometry">
            <mxPoint x="650" y="430" as="sourcePoint" />
            <mxPoint x="700" y="380" as="targetPoint" />
          </mxGeometry>
        </mxCell>
        <mxCell id="rBnCbFCfP_WUOxlLveMo-25" value="extrato-db" style="text;html=1;align=center;verticalAlign=middle;whiteSpace=wrap;rounded=0;" vertex="1" parent="1">
          <mxGeometry x="533" y="470" width="60" height="30" as="geometry" />
        </mxCell>
        <mxCell id="rBnCbFCfP_WUOxlLveMo-27" value="" style="endArrow=classic;html=1;rounded=0;exitX=1.006;exitY=0.55;exitDx=0;exitDy=0;exitPerimeter=0;entryX=0;entryY=0.25;entryDx=0;entryDy=0;" edge="1" parent="1" source="rBnCbFCfP_WUOxlLveMo-3">
          <mxGeometry width="50" height="50" relative="1" as="geometry">
            <mxPoint x="220" y="510" as="sourcePoint" />
            <mxPoint x="380" y="297.5" as="targetPoint" />
          </mxGeometry>
        </mxCell>
        <mxCell id="rBnCbFCfP_WUOxlLveMo-35" value="" style="endArrow=classic;html=1;rounded=0;exitX=1;exitY=0.5;exitDx=0;exitDy=0;entryX=0.141;entryY=0.429;entryDx=0;entryDy=0;entryPerimeter=0;" edge="1" parent="1" source="rBnCbFCfP_WUOxlLveMo-9" target="rBnCbFCfP_WUOxlLveMo-14">
          <mxGeometry width="50" height="50" relative="1" as="geometry">
            <mxPoint x="450" y="320" as="sourcePoint" />
            <mxPoint x="500" y="270" as="targetPoint" />
          </mxGeometry>
        </mxCell>
        <mxCell id="rBnCbFCfP_WUOxlLveMo-38" value="" style="shape=image;verticalLabelPosition=bottom;labelBackgroundColor=default;verticalAlign=top;aspect=fixed;imageAspect=0;image=data:image/png,iVBORw0KGgoAAAANSUhEUgAAAGQAAABkCAMAAABHPGVmAAAApVBMVEX///9NTEzw7+/+/v7U1NS5ubm+vr78/PzCwsL09PSztLSfn6BOT0+RkZHi4eH4+Pjn5ualpaXKysoLuOB7fX2tra3t7OxwcHCUlJTZ2dnd3t+qqqqZmpqEhIRhYWEMjavFxcXQ0NCKi4tra2sxxOdIWFsOm7wKq9J3d3eHqrIav+dJrMO01d1Sx+M8anU9YGh+mJ4/lqpptcg3eoqMytlsyd9Ki5pZG3QrAAAC7UlEQVRo3u2V2XKbMBRAQSAJgSUECLGDAW9JnKRNl///tF5hpwldHp1pZ3ReEDbizF10cRyLxWKxWCwWi8VisVgs/x+eT4JX9K0kde9urrgtvY2DcveN3r+NJN27m/3zxnWfn/au28W3cDDlbp6Hwxd3f9h93rib4F2xfi68t0sc07dfIA9xvH788o+3TrsmOByG7KG5y+53d0lEBIp9P3ZoPQo2poZaBiNsqoLKkUHe4IoyjNmi8Ju2DYVZxmFUwQUlCYN1S95bKELo63DMzqJ+zHaPPiAZIcyrcIBY2ORAivJIOLpJZB3xsi3Lrebc9CHFnZomNY2w9ou5haDkXGja9Kd6lS2N6sOQPdZCnCGUr6+SGhPtsDAUWmvm+BFm2yjVSRkKOSapLksEm0fVpUhjNUmHRnNh3iyLkwz7U7VqLaT1y3C8PwvgW3b/eL5IKkykYySIxtQzuSBJg0aemywhihZJHCliEpXARShVzo0HkqKZi3F1DrWU5+GQfasM5wwsaSoYwRiPnpHksCLwPpFE0ehgnl72XSSId0s5tiqh4dzUJyVB0vd9tD7sYxjeDdnuJTFEoHto22CRmFe/SSiJQuaQtYTxrr5IGt0VuJpmfJGsK+LosGkeTFtFwGdogE+cE5BUI07jS7ro0id+tIUaXNKlr+miicKmrJEKtsVcFMU8MZDkbT+xlcVv8rsMQgHHJxMI5xybwsdbXL0WHnlXCYLC1yKFDii5L6AFuo5IkSsueNFCKlSRQk20Vn3urboL5/nLEkoLgRwhkGmRmPMjry0cQCx+CxIoDS9L3o667KZpatG2U12neD0Wnek2Mrc1tLAzznO6DgWePma7h05BIN9PJ4792K9Mx4/19TBWIJHB0pUoxWEgHUZCgMSewEkDoxuCW5Lf5HXSMMcLWkx/GSvu0zGDsTIcD38ZK6ump3+4937d4nm/D8jnJxiQ+9sNyI8Z9R/y0fqYz6/FYrFYLBaLxWKxWCyWf50fRqNBhSKf4pEAAAAASUVORK5CYII=;" vertex="1" parent="1">
          <mxGeometry x="355" y="70" width="100" height="100" as="geometry" />
        </mxCell>
        <mxCell id="rBnCbFCfP_WUOxlLveMo-39" value="core-extrato" style="text;html=1;align=center;verticalAlign=middle;whiteSpace=wrap;rounded=0;fontStyle=1;fontSize=16;" vertex="1" parent="1">
          <mxGeometry x="290" y="30" width="230" height="30" as="geometry" />
        </mxCell>
      </root>
    </mxGraphModel>
  </diagram>
</mxfile>
